<?xml version="1.0" encoding="UTF-8" standalone="no" ?>
<COLLADA xmlns="http://www.collada.org/2005/11/COLLADASchema" version="1.4.1">
    <asset>
        <contributor>
            <authoring_tool>SketchUp 8.0.14346</authoring_tool>
        </contributor>
        <created>2017-12-16T23:21:14Z</created>
        <modified>2017-12-16T23:21:14Z</modified>
        <unit meter="0.0254" name="inch" />
        <up_axis>Z_UP</up_axis>
    </asset>
    <library_cameras>
        <camera id="ID1" name="skp_camera_Last_Saved_SketchUp_View">
            <optics>
                <technique_common>
                    <perspective>
                        <yfov>35</yfov>
                        <aspect_ratio>0</aspect_ratio>
                        <znear>1</znear>
                        <zfar>1000</zfar>
                    </perspective>
                </technique_common>
            </optics>
        </camera>
    </library_cameras>
    <library_visual_scenes>
        <visual_scene id="ID2">
            <node name="SketchUp">
                <instance_geometry url="#ID3">
                    <bind_material>
                        <technique_common>
                            <instance_material symbol="Material2" target="#ID4">
                                <bind_vertex_input semantic="UVSET0" input_semantic="TEXCOORD" input_set="0" />
                            </instance_material>
                        </technique_common>
                    </bind_material>
                </instance_geometry>
                <instance_geometry url="#ID11">
                    <bind_material>
                        <technique_common>
                            <instance_material symbol="Material2" target="#ID12">
                                <bind_vertex_input semantic="UVSET0" input_semantic="TEXCOORD" input_set="0" />
                            </instance_material>
                        </technique_common>
                    </bind_material>
                </instance_geometry>
                <instance_geometry url="#ID19">
                    <bind_material>
                        <technique_common>
                            <instance_material symbol="Material2" target="#ID12">
                                <bind_vertex_input semantic="UVSET0" input_semantic="TEXCOORD" input_set="0" />
                            </instance_material>
                        </technique_common>
                    </bind_material>
                </instance_geometry>
                <instance_geometry url="#ID25">
                    <bind_material>
                        <technique_common>
                            <instance_material symbol="Material2" target="#ID27">
                                <bind_vertex_input semantic="UVSET0" input_semantic="TEXCOORD" input_set="0" />
                            </instance_material>
                        </technique_common>
                    </bind_material>
                </instance_geometry>
                <instance_geometry url="#ID33">
                    <bind_material>
                        <technique_common>
                            <instance_material symbol="Material2" target="#ID34">
                                <bind_vertex_input semantic="UVSET0" input_semantic="TEXCOORD" input_set="0" />
                            </instance_material>
                        </technique_common>
                    </bind_material>
                </instance_geometry>
                <instance_geometry url="#ID41">
                    <bind_material>
                        <technique_common>
                            <instance_material symbol="Material2" target="#ID27">
                                <bind_vertex_input semantic="UVSET0" input_semantic="TEXCOORD" input_set="0" />
                            </instance_material>
                        </technique_common>
                    </bind_material>
                </instance_geometry>
                <instance_geometry url="#ID47">
                    <bind_material>
                        <technique_common>
                            <instance_material symbol="Material2" target="#ID12">
                                <bind_vertex_input semantic="UVSET0" input_semantic="TEXCOORD" input_set="0" />
                            </instance_material>
                        </technique_common>
                    </bind_material>
                </instance_geometry>
                <instance_geometry url="#ID53">
                    <bind_material>
                        <technique_common>
                            <instance_material symbol="Material2" target="#ID27">
                                <bind_vertex_input semantic="UVSET0" input_semantic="TEXCOORD" input_set="0" />
                            </instance_material>
                        </technique_common>
                    </bind_material>
                </instance_geometry>
                <instance_geometry url="#ID59">
                    <bind_material>
                        <technique_common>
                            <instance_material symbol="Material2" target="#ID34">
                                <bind_vertex_input semantic="UVSET0" input_semantic="TEXCOORD" input_set="0" />
                            </instance_material>
                        </technique_common>
                    </bind_material>
                </instance_geometry>
                <instance_geometry url="#ID65">
                    <bind_material>
                        <technique_common>
                            <instance_material symbol="Material2" target="#ID27">
                                <bind_vertex_input semantic="UVSET0" input_semantic="TEXCOORD" input_set="0" />
                            </instance_material>
                        </technique_common>
                    </bind_material>
                </instance_geometry>
                <instance_geometry url="#ID71">
                    <bind_material>
                        <technique_common>
                            <instance_material symbol="Material2" target="#ID4">
                                <bind_vertex_input semantic="UVSET0" input_semantic="TEXCOORD" input_set="0" />
                            </instance_material>
                        </technique_common>
                    </bind_material>
                </instance_geometry>
                <instance_geometry url="#ID77">
                    <bind_material>
                        <technique_common>
                            <instance_material symbol="Material2" target="#ID27">
                                <bind_vertex_input semantic="UVSET0" input_semantic="TEXCOORD" input_set="0" />
                            </instance_material>
                        </technique_common>
                    </bind_material>
                </instance_geometry>
                <instance_geometry url="#ID83">
                    <bind_material>
                        <technique_common>
                            <instance_material symbol="Material2" target="#ID84">
                                <bind_vertex_input semantic="UVSET0" input_semantic="TEXCOORD" input_set="0" />
                            </instance_material>
                        </technique_common>
                    </bind_material>
                </instance_geometry>
                <node name="skp_camera_Last_Saved_SketchUp_View">
                    <matrix>-0.7383548 -0.33769 0.5837787 93.7775 0.6744124 -0.369707 0.639128 101.7818 0 0.8656109 0.5007173 104.1574 0 0 0 1</matrix>
                    <instance_camera url="#ID1" />
                </node>
            </node>
        </visual_scene>
    </library_visual_scenes>
    <library_geometries>
        <geometry id="ID3">
            <mesh>
                <source id="ID6">
                    <float_array id="ID9" count="72">-12.79852 3.429352 0 -12.79852 -3.429352 0 -13.25 8.113285e-16 0 -11.47484 6.625 0 -11.47484 -6.625 0 -9.369165 -9.369165 0 -9.369165 9.369165 0 -6.625 -11.47484 0 -6.625 11.47484 0 -3.429352 -12.79852 0 -3.429352 12.79852 0 -1.622657e-15 -13.25 0 0 13.25 0 3.429352 -12.79852 0 3.429352 12.79852 0 6.625 -11.47484 0 6.625 11.47484 0 9.369165 -9.369165 0 9.369165 9.369165 0 11.47484 -6.625 0 11.47484 6.625 0 12.79852 -3.429352 0 12.79852 3.429352 0 13.25 -2.433986e-15 0</float_array>
                    <technique_common>
                        <accessor count="24" source="#ID9" stride="3">
                            <param name="X" type="float" />
                            <param name="Y" type="float" />
                            <param name="Z" type="float" />
                        </accessor>
                    </technique_common>
                </source>
                <source id="ID7">
                    <float_array id="ID10" count="72">0 0 -1 0 0 -1 0 0 -1 0 0 -1 0 0 -1 0 0 -1 0 0 -1 0 0 -1 0 0 -1 0 0 -1 0 0 -1 0 0 -1 0 0 -1 0 0 -1 0 0 -1 0 0 -1 0 0 -1 0 0 -1 0 0 -1 0 0 -1 0 0 -1 0 0 -1 0 0 -1 0 0 -1</float_array>
                    <technique_common>
                        <accessor count="24" source="#ID10" stride="3">
                            <param name="X" type="float" />
                            <param name="Y" type="float" />
                            <param name="Z" type="float" />
                        </accessor>
                    </technique_common>
                </source>
                <vertices id="ID8">
                    <input semantic="POSITION" source="#ID6" />
                    <input semantic="NORMAL" source="#ID7" />
                </vertices>
                <triangles count="22" material="Material2">
                    <input offset="0" semantic="VERTEX" source="#ID8" />
                    <p>0 1 2 1 0 3 1 3 4 4 3 5 5 3 6 5 6 7 7 6 8 7 8 9 9 8 10 9 10 11 11 10 12 11 12 13 13 12 14 13 14 15 15 14 16 15 16 17 17 16 18 17 18 19 19 18 20 19 20 21 21 20 22 21 22 23</p>
                </triangles>
            </mesh>
        </geometry>
        <geometry id="ID11">
            <mesh>
                <source id="ID14">
                    <float_array id="ID17" count="150">-3.429352 -12.79852 23.25 -6.625 -11.47484 15.5 -3.429352 -12.79852 15.5 -6.625 -11.47484 23.25 -1.622657e-15 -13.25 23.25 -4.867971e-15 -13.25 15.5 -9.369165 -9.369165 15.5 -9.369165 -9.369165 23.25 3.429352 -12.79852 23.25 3.429352 -12.79852 15.5 -11.47484 -6.625 23.25 -11.47484 -6.625 15.5 6.625 -11.47484 23.25 6.625 -11.47484 15.5 -12.79852 -3.429352 23.25 -12.79852 -3.429352 15.5 9.369165 -9.369165 23.25 9.369165 -9.369165 15.5 -13.25 8.113285e-16 23.25 -13.25 4.056643e-15 15.5 11.47484 -6.625 15.5 11.47484 -6.625 23.25 -12.79852 3.429352 23.25 -12.79852 3.429352 15.5 12.79852 -3.429352 15.5 12.79852 -3.429352 23.25 -11.47484 6.625 23.25 -11.47484 6.625 15.5 13.25 -2.433986e-15 15.5 13.25 -2.433986e-15 23.25 -9.369165 9.369165 23.25 -9.369165 9.369165 15.5 12.79852 3.429352 15.5 13.25 -2.433986e-15 23.25 13.25 -2.433986e-15 15.5 12.79852 3.429352 23.25 -6.625 11.47484 15.5 -6.625 11.47484 23.25 11.47484 6.625 15.5 11.47484 6.625 23.25 -3.429352 12.79852 15.5 -3.429352 12.79852 23.25 9.369165 9.369165 15.5 9.369165 9.369165 23.25 3.245314e-15 13.25 15.5 -3.944305e-31 13.25 23.25 6.625 11.47484 23.25 6.625 11.47484 15.5 3.429352 12.79852 15.5 3.429352 12.79852 23.25</float_array>
                    <technique_common>
                        <accessor count="50" source="#ID17" stride="3">
                            <param name="X" type="float" />
                            <param name="Y" type="float" />
                            <param name="Z" type="float" />
                        </accessor>
                    </technique_common>
                </source>
                <source id="ID15">
                    <float_array id="ID18" count="150">-0.258819 -0.9659258 4.773497e-17 -0.5 -0.8660254 7.716999e-18 -0.258819 -0.9659258 4.773497e-17 -0.5 -0.8660254 7.716999e-18 -1.604e-16 -1 1.362774e-17 -2.316889e-16 -1 1.362774e-17 -0.7071068 -0.7071068 -1.069071e-16 -0.7071068 -0.7071068 -1.069071e-16 0.258819 -0.9659258 -2.042881e-17 0.258819 -0.9659258 -2.042881e-17 -0.8660254 -0.5 -1.177822e-16 -0.8660254 -0.5 -1.177822e-16 0.5 -0.8660254 -7.686959e-17 0.5 -0.8660254 -7.686959e-17 -0.9659258 -0.258819 -3.629194e-17 -0.9659258 -0.258819 -3.629194e-17 0.7071068 -0.7071068 -7.263825e-17 0.7071068 -0.7071068 -7.263825e-17 -1 -1.782222e-17 1.978664e-32 -1 5.346666e-17 1.187198e-32 0.8660254 -0.5 -1.348308e-17 0.8660254 -0.5 -1.348308e-17 -0.9659258 0.258819 3.6883e-17 -0.9659258 0.258819 3.6883e-17 0.9659258 -0.258819 -1.179256e-18 0.9659258 -0.258819 -1.179256e-18 -0.8660254 0.5 1.183733e-16 -0.8660254 0.5 1.183733e-16 0.9914449 -0.1305262 -1.904512e-17 0.9914449 -0.1305262 -1.904512e-17 -0.7071068 0.7071068 1.069071e-16 -0.7071068 0.7071068 1.069071e-16 0.9659258 0.258819 1.179256e-18 0.9914449 0.1305262 1.904512e-17 0.9914449 0.1305262 1.904512e-17 0.9659258 0.258819 1.179256e-18 -0.5 0.8660254 -7.716999e-18 -0.5 0.8660254 -7.716999e-18 0.8660254 0.5 1.348308e-17 0.8660254 0.5 1.348308e-17 -0.258819 0.9659258 -4.773497e-17 -0.258819 0.9659258 -4.773497e-17 0.7071068 0.7071068 6.809836e-17 0.7071068 0.7071068 6.809836e-17 -1.336666e-16 1 -1.362774e-17 -2.049555e-16 1 -1.362774e-17 0.5 0.8660254 6.888475e-17 0.5 0.8660254 6.888475e-17 0.258819 0.9659258 1.698386e-17 0.258819 0.9659258 1.698386e-17</float_array>
                    <technique_common>
                        <accessor count="50" source="#ID18" stride="3">
                            <param name="X" type="float" />
                            <param name="Y" type="float" />
                            <param name="Z" type="float" />
                        </accessor>
                    </technique_common>
                </source>
                <vertices id="ID16">
                    <input semantic="POSITION" source="#ID14" />
                    <input semantic="NORMAL" source="#ID15" />
                </vertices>
                <triangles count="48" material="Material2">
                    <input offset="0" semantic="VERTEX" source="#ID16" />
                    <p>0 1 2 1 0 3 4 2 5 2 4 0 3 6 1 6 3 7 8 5 9 5 8 4 10 6 7 6 10 11 12 9 13 9 12 8 14 11 10 11 14 15 16 13 17 13 16 12 18 15 14 15 18 19 20 16 17 16 20 21 22 19 18 19 22 23 24 21 20 21 24 25 26 23 22 23 26 27 28 25 24 25 28 29 30 27 26 27 30 31 32 33 34 33 32 35 30 36 31 36 30 37 38 35 32 35 38 39 37 40 36 40 37 41 42 39 38 39 42 43 41 44 40 44 41 45 46 42 47 42 46 43 45 48 44 48 45 49 49 47 48 47 49 46</p>
                </triangles>
            </mesh>
        </geometry>
        <geometry id="ID19">
            <mesh>
                <source id="ID20">
                    <float_array id="ID23" count="150">0 13.25 7.75 3.429352 12.79852 1 0 13.25 1 3.429352 12.79852 7.75 6.625 11.47484 1 6.625 11.47484 7.75 -3.429352 12.79852 7.75 -3.429352 12.79852 1 9.369165 9.369165 1 9.369165 9.369165 7.75 -6.625 11.47484 7.75 -6.625 11.47484 1 11.47484 6.625 7.75 11.47484 6.625 1 -9.369165 9.369165 7.75 -9.369165 9.369165 1 12.79852 3.429352 7.75 12.79852 3.429352 1 -11.47484 6.625 7.75 -11.47484 6.625 1 13.25 -2.433986e-15 7.75 13.25 -2.433986e-15 1 -12.79852 3.429352 7.75 -12.79852 3.429352 1 12.79852 -3.429352 1 13.25 -2.433986e-15 7.75 12.79852 -3.429352 7.75 13.25 -2.433986e-15 1 -13.25 4.056643e-15 7.75 -13.25 8.113285e-16 1 11.47484 -6.625 1 11.47484 -6.625 7.75 -12.79852 -3.429352 7.75 -12.79852 -3.429352 1 9.369165 -9.369165 7.75 9.369165 -9.369165 1 -11.47484 -6.625 7.75 -11.47484 -6.625 1 6.625 -11.47484 1 6.625 -11.47484 7.75 -9.369165 -9.369165 7.75 -9.369165 -9.369165 1 3.429352 -12.79852 1 3.429352 -12.79852 7.75 -6.625 -11.47484 7.75 -6.625 -11.47484 1 -1.622657e-15 -13.25 1 -4.867971e-15 -13.25 7.75 -3.429352 -12.79852 7.75 -3.429352 -12.79852 1</float_array>
                    <technique_common>
                        <accessor count="50" source="#ID23" stride="3">
                            <param name="X" type="float" />
                            <param name="Y" type="float" />
                            <param name="Z" type="float" />
                        </accessor>
                    </technique_common>
                </source>
                <source id="ID21">
                    <float_array id="ID24" count="150">-4.455555e-17 1 -1.740365e-17 0.258819 0.9659258 -3.886241e-17 -4.455555e-17 1 -1.740365e-17 0.258819 0.9659258 -3.886241e-17 0.5 0.8660254 2.539393e-18 0.5 0.8660254 2.539393e-18 -0.258819 0.9659258 5.518929e-17 -0.258819 0.9659258 5.518929e-17 0.7071068 0.7071068 -6.904838e-17 0.7071068 0.7071068 -6.904838e-17 -0.5 0.8660254 5.883529e-17 -0.5 0.8660254 5.883529e-17 0.8660254 0.5 -9.087916e-17 0.8660254 0.5 -9.087916e-17 -0.7071068 0.7071068 2.58127e-17 -0.7071068 0.7071068 2.58127e-17 0.9659258 0.258819 2.944092e-17 0.9659258 0.258819 2.944092e-17 -0.8660254 0.5 2.037148e-17 -0.8660254 0.5 2.037148e-17 0.9914449 0.1305262 8.669865e-17 0.9914449 0.1305262 8.669865e-17 -0.9659258 0.258819 -1.084262e-17 -0.9659258 0.258819 -1.084262e-17 0.9659258 -0.258819 -1.363961e-17 0.9914449 -0.1305262 -2.772548e-17 0.9659258 -0.258819 -1.363961e-17 0.9914449 -0.1305262 -2.772548e-17 -1 7.128888e-17 -4.454588e-17 -1 -8.91111e-18 -4.454588e-17 0.8660254 -0.5 -2.918224e-17 0.8660254 -0.5 -2.918224e-17 -0.9659258 -0.258819 -2.405756e-17 -0.9659258 -0.258819 -2.405756e-17 0.7071068 -0.7071068 -6.325718e-17 0.7071068 -0.7071068 -6.325718e-17 -0.8660254 -0.5 -5.046275e-19 -0.8660254 -0.5 -5.046275e-19 0.5 -0.8660254 -6.752153e-17 0.5 -0.8660254 -6.752153e-17 -0.7071068 -0.7071068 1.153281e-16 -0.7071068 -0.7071068 1.153281e-16 0.258819 -0.9659258 -5.002125e-18 0.258819 -0.9659258 -5.002125e-18 -0.5 -0.8660254 1.132646e-16 -0.5 -0.8660254 1.132646e-16 -1.247555e-16 -1 3.541534e-17 -2.138666e-16 -1 3.541534e-17 -0.258819 -0.9659258 9.068961e-18 -0.258819 -0.9659258 9.068961e-18</float_array>
                    <technique_common>
                        <accessor count="50" source="#ID24" stride="3">
                            <param name="X" type="float" />
                            <param name="Y" type="float" />
                            <param name="Z" type="float" />
                        </accessor>
                    </technique_common>
                </source>
                <vertices id="ID22">
                    <input semantic="POSITION" source="#ID20" />
                    <input semantic="NORMAL" source="#ID21" />
                </vertices>
                <triangles count="48" material="Material2">
                    <input offset="0" semantic="VERTEX" source="#ID22" />
                    <p>0 1 2 1 0 3 3 4 1 4 3 5 6 2 7 2 6 0 5 8 4 8 5 9 10 7 11 7 10 6 8 12 13 12 8 9 14 11 15 11 14 10 13 16 17 16 13 12 18 15 19 15 18 14 17 20 21 20 17 16 22 19 23 19 22 18 24 25 26 25 24 27 28 23 29 23 28 22 30 26 31 26 30 24 32 29 33 29 32 28 30 34 35 34 30 31 36 33 37 33 36 32 34 38 35 38 34 39 40 37 41 37 40 36 39 42 38 42 39 43 44 41 45 41 44 40 43 46 42 46 43 47 48 45 49 45 48 44 47 49 46 49 47 48</p>
                </triangles>
            </mesh>
        </geometry>
        <geometry id="ID25">
            <mesh>
                <source id="ID28">
                    <float_array id="ID31" count="72">-12.79852 3.429352 7.75 -12.79852 -3.429352 7.75 -13.25 4.056643e-15 7.75 -11.47484 -6.625 7.75 -11.47484 6.625 7.75 -9.369165 -9.369165 7.75 -9.369165 9.369165 7.75 -6.625 -11.47484 7.75 -6.625 11.47484 7.75 -3.429352 -12.79852 7.75 -3.429352 12.79852 7.75 -4.867971e-15 -13.25 7.75 0 13.25 7.75 3.429352 -12.79852 7.75 3.429352 12.79852 7.75 6.625 -11.47484 7.75 6.625 11.47484 7.75 9.369165 -9.369165 7.75 9.369165 9.369165 7.75 11.47484 -6.625 7.75 11.47484 6.625 7.75 12.79852 -3.429352 7.75 12.79852 3.429352 7.75 13.25 -2.433986e-15 7.75</float_array>
                    <technique_common>
                        <accessor count="24" source="#ID31" stride="3">
                            <param name="X" type="float" />
                            <param name="Y" type="float" />
                            <param name="Z" type="float" />
                        </accessor>
                    </technique_common>
                </source>
                <source id="ID29">
                    <float_array id="ID32" count="72">0 0 -1 0 0 -1 0 0 -1 0 0 -1 0 0 -1 0 0 -1 0 0 -1 0 0 -1 0 0 -1 0 0 -1 0 0 -1 0 0 -1 0 0 -1 0 0 -1 0 0 -1 0 0 -1 0 0 -1 0 0 -1 0 0 -1 0 0 -1 0 0 -1 0 0 -1 0 0 -1 0 0 -1</float_array>
                    <technique_common>
                        <accessor count="24" source="#ID32" stride="3">
                            <param name="X" type="float" />
                            <param name="Y" type="float" />
                            <param name="Z" type="float" />
                        </accessor>
                    </technique_common>
                </source>
                <vertices id="ID30">
                    <input semantic="POSITION" source="#ID28" />
                    <input semantic="NORMAL" source="#ID29" />
                </vertices>
                <triangles count="22" material="Material2">
                    <input offset="0" semantic="VERTEX" source="#ID30" />
                    <p>0 1 2 1 0 3 3 0 4 3 4 5 5 4 6 5 6 7 7 6 8 7 8 9 9 8 10 9 10 11 11 10 12 11 12 13 13 12 14 13 14 15 15 14 16 15 16 17 17 16 18 17 18 19 19 18 20 19 20 21 21 20 22 21 22 23</p>
                </triangles>
            </mesh>
        </geometry>
        <geometry id="ID33">
            <mesh>
                <source id="ID36">
                    <float_array id="ID39" count="150">9.369165 -9.369165 15.5 6.625 -11.47484 7.75 9.369165 -9.369165 7.75 6.625 -11.47484 15.5 11.47484 -6.625 7.75 11.47484 -6.625 15.5 3.429352 -12.79852 7.75 3.429352 -12.79852 15.5 12.79852 -3.429352 7.75 12.79852 -3.429352 15.5 -4.867971e-15 -13.25 7.75 -4.867971e-15 -13.25 15.5 13.25 -2.433986e-15 7.75 13.25 -2.433986e-15 15.5 -3.429352 -12.79852 7.75 -3.429352 -12.79852 15.5 12.79852 3.429352 7.75 13.25 -2.433986e-15 15.5 13.25 -2.433986e-15 7.75 12.79852 3.429352 15.5 -6.625 -11.47484 7.75 -6.625 -11.47484 15.5 11.47484 6.625 7.75 11.47484 6.625 15.5 -9.369165 -9.369165 7.75 -9.369165 -9.369165 15.5 9.369165 9.369165 7.75 9.369165 9.369165 15.5 -11.47484 -6.625 15.5 -11.47484 -6.625 7.75 6.625 11.47484 15.5 6.625 11.47484 7.75 -12.79852 -3.429352 15.5 -12.79852 -3.429352 7.75 3.429352 12.79852 15.5 3.429352 12.79852 7.75 -13.25 4.056643e-15 15.5 -13.25 4.056643e-15 7.75 3.245314e-15 13.25 15.5 0 13.25 7.75 -12.79852 3.429352 15.5 -12.79852 3.429352 7.75 -3.429352 12.79852 15.5 -3.429352 12.79852 7.75 -11.47484 6.625 15.5 -11.47484 6.625 7.75 -6.625 11.47484 15.5 -6.625 11.47484 7.75 -9.369165 9.369165 15.5 -9.369165 9.369165 7.75</float_array>
                    <technique_common>
                        <accessor count="50" source="#ID39" stride="3">
                            <param name="X" type="float" />
                            <param name="Y" type="float" />
                            <param name="Z" type="float" />
                        </accessor>
                    </technique_common>
                </source>
                <source id="ID37">
                    <float_array id="ID40" count="150">0.7071068 -0.7071068 0 0.5 -0.8660254 0 0.7071068 -0.7071068 0 0.5 -0.8660254 0 0.8660254 -0.5 0 0.8660254 -0.5 0 0.258819 -0.9659258 0 0.258819 -0.9659258 0 0.9659258 -0.258819 0 0.9659258 -0.258819 0 -2.762444e-16 -1 0 -2.762444e-16 -1 0 0.9914449 -0.1305262 -0 0.9914449 -0.1305262 -0 -0.258819 -0.9659258 0 -0.258819 -0.9659258 0 0.9659258 0.258819 0 0.9914449 0.1305262 -0 0.9914449 0.1305262 -0 0.9659258 0.258819 0 -0.5 -0.8660254 0 -0.5 -0.8660254 0 0.8660254 0.5 0 0.8660254 0.5 0 -0.7071068 -0.7071068 0 -0.7071068 -0.7071068 0 0.7071068 0.7071068 0 0.7071068 0.7071068 0 -0.8660254 -0.5 0 -0.8660254 -0.5 0 0.5 0.8660254 0 0.5 0.8660254 0 -0.9659258 -0.258819 0 -0.9659258 -0.258819 0 0.258819 0.9659258 -1.460115e-17 0.258819 0.9659258 -1.460115e-17 -1 1.693111e-16 0 -1 1.693111e-16 0 -7.128888e-17 1 1.780797e-32 -1.514889e-16 1 3.363729e-32 -0.9659258 0.258819 0 -0.9659258 0.258819 0 -0.258819 0.9659258 1.460115e-17 -0.258819 0.9659258 1.460115e-17 -0.8660254 0.5 0 -0.8660254 0.5 0 -0.5 0.8660254 0 -0.5 0.8660254 0 -0.7071068 0.7071068 0 -0.7071068 0.7071068 0</float_array>
                    <technique_common>
                        <accessor count="50" source="#ID40" stride="3">
                            <param name="X" type="float" />
                            <param name="Y" type="float" />
                            <param name="Z" type="float" />
                        </accessor>
                    </technique_common>
                </source>
                <vertices id="ID38">
                    <input semantic="POSITION" source="#ID36" />
                    <input semantic="NORMAL" source="#ID37" />
                </vertices>
                <triangles count="48" material="Material2">
                    <input offset="0" semantic="VERTEX" source="#ID38" />
                    <p>0 1 2 1 0 3 4 0 2 0 4 5 3 6 1 6 3 7 8 5 4 5 8 9 7 10 6 10 7 11 12 9 8 9 12 13 11 14 10 14 11 15 16 17 18 17 16 19 15 20 14 20 15 21 22 19 16 19 22 23 21 24 20 24 21 25 26 23 22 23 26 27 28 24 25 24 28 29 30 26 31 26 30 27 32 29 28 29 32 33 34 31 35 31 34 30 36 33 32 33 36 37 38 35 39 35 38 34 40 37 36 37 40 41 42 39 43 39 42 38 44 41 40 41 44 45 46 43 47 43 46 42 48 45 44 45 48 49 48 47 49 47 48 46</p>
                </triangles>
            </mesh>
        </geometry>
        <geometry id="ID41">
            <mesh>
                <source id="ID42">
                    <float_array id="ID45" count="72">-12.79852 -3.429352 15.5 -12.79852 3.429352 15.5 -13.25 4.056643e-15 15.5 -11.47484 -6.625 15.5 -11.47484 6.625 15.5 -9.369165 -9.369165 15.5 -9.369165 9.369165 15.5 -6.625 -11.47484 15.5 -6.625 11.47484 15.5 -3.429352 -12.79852 15.5 -3.429352 12.79852 15.5 -4.867971e-15 -13.25 15.5 3.245314e-15 13.25 15.5 3.429352 -12.79852 15.5 3.429352 12.79852 15.5 6.625 -11.47484 15.5 6.625 11.47484 15.5 9.369165 -9.369165 15.5 9.369165 9.369165 15.5 11.47484 -6.625 15.5 11.47484 6.625 15.5 12.79852 -3.429352 15.5 12.79852 3.429352 15.5 13.25 -2.433986e-15 15.5</float_array>
                    <technique_common>
                        <accessor count="24" source="#ID45" stride="3">
                            <param name="X" type="float" />
                            <param name="Y" type="float" />
                            <param name="Z" type="float" />
                        </accessor>
                    </technique_common>
                </source>
                <source id="ID43">
                    <float_array id="ID46" count="72">-0 -0 1 -0 -0 1 -0 -0 1 -0 -0 1 -0 -0 1 -0 -0 1 -0 -0 1 -0 -0 1 -0 -0 1 -0 -0 1 -0 -0 1 -0 -0 1 -0 -0 1 -0 -0 1 -0 -0 1 -0 -0 1 -0 -0 1 -0 -0 1 -0 -0 1 -0 -0 1 -0 -0 1 -0 -0 1 -0 -0 1 -0 -0 1</float_array>
                    <technique_common>
                        <accessor count="24" source="#ID46" stride="3">
                            <param name="X" type="float" />
                            <param name="Y" type="float" />
                            <param name="Z" type="float" />
                        </accessor>
                    </technique_common>
                </source>
                <vertices id="ID44">
                    <input semantic="POSITION" source="#ID42" />
                    <input semantic="NORMAL" source="#ID43" />
                </vertices>
                <triangles count="22" material="Material2">
                    <input offset="0" semantic="VERTEX" source="#ID44" />
                    <p>0 1 2 1 0 3 1 3 4 4 3 5 4 5 6 6 5 7 6 7 8 8 7 9 8 9 10 10 9 11 10 11 12 12 11 13 12 13 14 14 13 15 14 15 16 16 15 17 16 17 18 18 17 19 18 19 20 20 19 21 20 21 22 22 21 23</p>
                </triangles>
            </mesh>
        </geometry>
        <geometry id="ID47">
            <mesh>
                <source id="ID48">
                    <float_array id="ID51" count="222">-3.429352 12.79852 38.75 3.245314e-15 13.25 31 -3.429352 12.79852 31 0 13.25 38.75 3.429352 12.79852 31 3.429352 12.79852 38.75 -6.625 11.47484 38.75 -6.625 11.47484 31 -12.79852 -3.429352 38.75 -12.79852 3.429352 38.75 -13.25 8.113285e-16 38.75 -11.47484 -6.625 38.75 -11.47484 6.625 38.75 -9.369165 -9.369165 38.75 -9.369165 9.369165 38.75 -6.625 -11.47484 38.75 -6.625 11.47484 38.75 -3.429352 -12.79852 38.75 -3.429352 12.79852 38.75 -1.622657e-15 -13.25 38.75 0 13.25 38.75 3.429352 -12.79852 38.75 3.429352 12.79852 38.75 6.625 -11.47484 38.75 6.625 11.47484 38.75 9.369165 -9.369165 38.75 9.369165 9.369165 38.75 11.47484 -6.625 38.75 11.47484 6.625 38.75 12.79852 -3.429352 38.75 12.79852 3.429352 38.75 13.25 -2.433986e-15 38.75 6.625 11.47484 31 6.625 11.47484 38.75 -9.369165 9.369165 38.75 -9.369165 9.369165 31 -11.47484 -6.625 38.75 -9.369165 -9.369165 31 -9.369165 -9.369165 38.75 -11.47484 -6.625 31 -6.625 -11.47484 38.75 -6.625 -11.47484 31 -3.429352 -12.79852 38.75 -3.429352 -12.79852 31 -1.622657e-15 -13.25 38.75 -4.867971e-15 -13.25 31 3.429352 -12.79852 38.75 3.429352 -12.79852 31 6.625 -11.47484 38.75 6.625 -11.47484 31 9.369165 -9.369165 38.75 9.369165 -9.369165 31 11.47484 -6.625 31 11.47484 -6.625 38.75 12.79852 -3.429352 31 12.79852 -3.429352 38.75 13.25 -2.433986e-15 31 13.25 -2.433986e-15 38.75 12.79852 3.429352 31 13.25 -2.433986e-15 38.75 13.25 -2.433986e-15 31 12.79852 3.429352 38.75 11.47484 6.625 38.75 11.47484 6.625 31 9.369165 9.369165 38.75 9.369165 9.369165 31 -11.47484 6.625 31 -11.47484 6.625 38.75 -12.79852 3.429352 31 -12.79852 3.429352 38.75 -13.25 4.056643e-15 31 -13.25 8.113285e-16 38.75 -12.79852 -3.429352 31 -12.79852 -3.429352 38.75</float_array>
                    <technique_common>
                        <accessor count="74" source="#ID51" stride="3">
                            <param name="X" type="float" />
                            <param name="Y" type="float" />
                            <param name="Z" type="float" />
                        </accessor>
                    </technique_common>
                </source>
                <source id="ID49">
                    <float_array id="ID52" count="222">-0.258819 0.9659258 -6.638106e-17 5.346666e-17 1 1.64186e-17 -0.258819 0.9659258 -6.638106e-17 -2.673333e-17 1 1.64186e-17 0.258819 0.9659258 5.12388e-17 0.258819 0.9659258 5.12388e-17 -0.5 0.8660254 -4.595881e-17 -0.5 0.8660254 -4.595881e-17 -0 -0 1 -0 -0 1 -0 -0 1 -0 -0 1 -0 -0 1 -0 -0 1 -0 -0 1 -0 -0 1 -0 -0 1 -0 -0 1 -0 -0 1 -0 -0 1 -0 -0 1 -0 -0 1 -0 -0 1 -0 -0 1 -0 -0 1 -0 -0 1 -0 -0 1 -0 -0 1 -0 -0 1 -0 -0 1 -0 -0 1 -0 -0 1 0.5 0.8660254 2.037685e-18 0.5 0.8660254 2.037685e-18 -0.7071068 0.7071068 -3.371233e-17 -0.7071068 0.7071068 -3.371233e-17 -0.8660254 -0.5 -2.619409e-18 -0.7071068 -0.7071068 -1.069071e-16 -0.7071068 -0.7071068 -1.069071e-16 -0.8660254 -0.5 -2.619409e-18 -0.5 -0.8660254 -1.074458e-16 -0.5 -0.8660254 -1.074458e-16 -0.258819 -0.9659258 -1.351369e-17 -0.258819 -0.9659258 -1.351369e-17 -1.782222e-16 -1 -3.199317e-17 -2.673333e-16 -1 -3.199317e-17 0.258819 -0.9659258 6.614513e-18 0.258819 -0.9659258 6.614513e-18 0.5 -0.8660254 6.455862e-17 0.5 -0.8660254 6.455862e-17 0.7071068 -0.7071068 6.344126e-17 0.7071068 -0.7071068 6.344126e-17 0.8660254 -0.5 3.088394e-17 0.8660254 -0.5 3.088394e-17 0.9659258 -0.258819 9.812222e-18 0.9659258 -0.258819 9.812222e-18 0.9914449 -0.1305262 2.123182e-17 0.9914449 -0.1305262 2.123182e-17 0.9659258 0.258819 -2.580342e-17 0.9914449 0.1305262 -8.274057e-17 0.9914449 0.1305262 -8.274057e-17 0.9659258 0.258819 -2.580342e-17 0.8660254 0.5 9.116889e-17 0.8660254 0.5 9.116889e-17 0.7071068 0.7071068 7.263825e-17 0.7071068 0.7071068 7.263825e-17 -0.8660254 0.5 -3.716502e-17 -0.8660254 0.5 -3.716502e-17 -0.9659258 0.258819 1.404933e-17 -0.9659258 0.258819 1.404933e-17 -1 8.91111e-17 4.659432e-17 -1 1.782222e-17 4.659432e-17 -0.9659258 -0.258819 2.398331e-17 -0.9659258 -0.258819 2.398331e-17</float_array>
                    <technique_common>
                        <accessor count="74" source="#ID52" stride="3">
                            <param name="X" type="float" />
                            <param name="Y" type="float" />
                            <param name="Z" type="float" />
                        </accessor>
                    </technique_common>
                </source>
                <vertices id="ID50">
                    <input semantic="POSITION" source="#ID48" />
                    <input semantic="NORMAL" source="#ID49" />
                </vertices>
                <triangles count="70" material="Material2">
                    <input offset="0" semantic="VERTEX" source="#ID50" />
                    <p>0 1 2 1 0 3 3 4 1 4 3 5 6 2 7 2 6 0 8 9 10 9 8 11 9 11 12 12 11 13 12 13 14 14 13 15 14 15 16 16 15 17 16 17 18 18 17 19 18 19 20 20 19 21 20 21 22 22 21 23 22 23 24 24 23 25 24 25 26 26 25 27 26 27 28 28 27 29 28 29 30 30 29 31 5 32 4 32 5 33 34 7 35 7 34 6 36 37 38 37 36 39 40 37 41 37 40 38 42 41 43 41 42 40 44 43 45 43 44 42 46 45 47 45 46 44 48 47 49 47 48 46 50 49 51 49 50 48 52 50 51 50 52 53 54 53 52 53 54 55 56 55 54 55 56 57 58 59 60 59 58 61 58 62 61 62 58 63 63 64 62 64 63 65 33 65 32 65 33 64 34 66 67 66 34 35 67 68 69 68 67 66 69 70 71 70 69 68 71 72 73 72 71 70 73 39 36 39 73 72</p>
                </triangles>
            </mesh>
        </geometry>
        <geometry id="ID53">
            <mesh>
                <source id="ID54">
                    <float_array id="ID57" count="72">-12.79852 3.429352 23.25 -12.79852 -3.429352 23.25 -13.25 8.113285e-16 23.25 -11.47484 6.625 23.25 -11.47484 -6.625 23.25 -9.369165 9.369165 23.25 -9.369165 -9.369165 23.25 -6.625 11.47484 23.25 -6.625 -11.47484 23.25 -3.429352 12.79852 23.25 -3.429352 -12.79852 23.25 -3.944305e-31 13.25 23.25 -1.622657e-15 -13.25 23.25 3.429352 -12.79852 23.25 3.429352 12.79852 23.25 6.625 11.47484 23.25 6.625 -11.47484 23.25 9.369165 9.369165 23.25 9.369165 -9.369165 23.25 11.47484 6.625 23.25 11.47484 -6.625 23.25 12.79852 3.429352 23.25 12.79852 -3.429352 23.25 13.25 -2.433986e-15 23.25</float_array>
                    <technique_common>
                        <accessor count="24" source="#ID57" stride="3">
                            <param name="X" type="float" />
                            <param name="Y" type="float" />
                            <param name="Z" type="float" />
                        </accessor>
                    </technique_common>
                </source>
                <source id="ID55">
                    <float_array id="ID58" count="72">0 0 -1 0 0 -1 0 0 -1 0 0 -1 0 0 -1 0 0 -1 0 0 -1 0 0 -1 0 0 -1 0 0 -1 0 0 -1 0 0 -1 0 0 -1 0 0 -1 0 0 -1 0 0 -1 0 0 -1 0 0 -1 0 0 -1 0 0 -1 0 0 -1 0 0 -1 0 0 -1 0 0 -1</float_array>
                    <technique_common>
                        <accessor count="24" source="#ID58" stride="3">
                            <param name="X" type="float" />
                            <param name="Y" type="float" />
                            <param name="Z" type="float" />
                        </accessor>
                    </technique_common>
                </source>
                <vertices id="ID56">
                    <input semantic="POSITION" source="#ID54" />
                    <input semantic="NORMAL" source="#ID55" />
                </vertices>
                <triangles count="22" material="Material2">
                    <input offset="0" semantic="VERTEX" source="#ID56" />
                    <p>0 1 2 1 0 3 1 3 4 4 3 5 4 5 6 6 5 7 6 7 8 8 7 9 8 9 10 10 9 11 10 11 12 12 11 13 13 11 14 13 14 15 13 15 16 16 15 17 16 17 18 18 17 19 18 19 20 20 19 21 20 21 22 22 21 23</p>
                </triangles>
            </mesh>
        </geometry>
        <geometry id="ID59">
            <mesh>
                <source id="ID60">
                    <float_array id="ID63" count="150">6.625 -11.47484 31 3.429352 -12.79852 23.25 6.625 -11.47484 23.25 3.429352 -12.79852 31 9.369165 -9.369165 31 9.369165 -9.369165 23.25 -1.622657e-15 -13.25 23.25 -4.867971e-15 -13.25 31 11.47484 -6.625 31 11.47484 -6.625 23.25 -3.429352 -12.79852 23.25 -3.429352 -12.79852 31 12.79852 -3.429352 31 12.79852 -3.429352 23.25 -6.625 -11.47484 23.25 -6.625 -11.47484 31 13.25 -2.433986e-15 31 13.25 -2.433986e-15 23.25 -9.369165 -9.369165 23.25 -9.369165 -9.369165 31 12.79852 3.429352 23.25 13.25 -2.433986e-15 31 13.25 -2.433986e-15 23.25 12.79852 3.429352 31 -11.47484 -6.625 23.25 -11.47484 -6.625 31 11.47484 6.625 31 11.47484 6.625 23.25 -12.79852 -3.429352 23.25 -12.79852 -3.429352 31 9.369165 9.369165 31 9.369165 9.369165 23.25 -13.25 8.113285e-16 23.25 -13.25 4.056643e-15 31 6.625 11.47484 31 6.625 11.47484 23.25 -12.79852 3.429352 23.25 -12.79852 3.429352 31 3.429352 12.79852 31 3.429352 12.79852 23.25 -11.47484 6.625 23.25 -11.47484 6.625 31 3.245314e-15 13.25 31 -3.944305e-31 13.25 23.25 -9.369165 9.369165 23.25 -9.369165 9.369165 31 -3.429352 12.79852 31 -3.429352 12.79852 23.25 -6.625 11.47484 23.25 -6.625 11.47484 31</float_array>
                    <technique_common>
                        <accessor count="50" source="#ID63" stride="3">
                            <param name="X" type="float" />
                            <param name="Y" type="float" />
                            <param name="Z" type="float" />
                        </accessor>
                    </technique_common>
                </source>
                <source id="ID61">
                    <float_array id="ID64" count="150">0.5 -0.8660254 8.27861e-17 0.258819 -0.9659258 2.042881e-17 0.5 -0.8660254 8.27861e-17 0.258819 -0.9659258 2.042881e-17 0.7071068 -0.7071068 7.855475e-17 0.7071068 -0.7071068 7.855475e-17 -1.604e-16 -1 -1.362774e-17 -2.316889e-16 -1 -1.362774e-17 0.8660254 -0.5 1.003813e-17 0.8660254 -0.5 1.003813e-17 -0.258819 -0.9659258 -5.403382e-17 -0.258819 -0.9659258 -5.403382e-17 0.9659258 -0.258819 -2.265699e-18 0.9659258 -0.258819 -2.265699e-18 -0.5 -0.8660254 -1.401585e-17 -0.5 -0.8660254 -1.401585e-17 0.9914449 -0.1305262 1.904512e-17 0.9914449 -0.1305262 1.904512e-17 -0.7071068 -0.7071068 1.069071e-16 -0.7071068 -0.7071068 1.069071e-16 0.9659258 0.258819 -1.179256e-18 0.9914449 0.1305262 -1.904512e-17 0.9914449 0.1305262 -1.904512e-17 0.9659258 0.258819 -1.179256e-18 -0.8660254 -0.5 1.212271e-16 -0.8660254 -0.5 1.212271e-16 0.8660254 0.5 -1.348308e-17 0.8660254 0.5 -1.348308e-17 -0.9659258 -0.258819 3.973689e-17 -0.9659258 -0.258819 3.973689e-17 0.7071068 0.7071068 -7.855475e-17 0.7071068 0.7071068 -7.855475e-17 -1 -3.564444e-17 -1.187198e-32 -1 3.564444e-17 -3.957328e-33 0.5 0.8660254 -7.934114e-17 0.5 0.8660254 -7.934114e-17 -0.9659258 0.258819 -3.6883e-17 -0.9659258 0.258819 -3.6883e-17 0.258819 0.9659258 -1.698386e-17 0.258819 0.9659258 -1.698386e-17 -0.8660254 0.5 -1.183733e-16 -0.8660254 0.5 -1.183733e-16 -1.336666e-16 1 1.362774e-17 -2.049555e-16 1 1.362774e-17 -0.7071068 0.7071068 -1.069071e-16 -0.7071068 0.7071068 -1.069071e-16 -0.258819 0.9659258 4.773497e-17 -0.258819 0.9659258 4.773497e-17 -0.5 0.8660254 7.716999e-18 -0.5 0.8660254 7.716999e-18</float_array>
                    <technique_common>
                        <accessor count="50" source="#ID64" stride="3">
                            <param name="X" type="float" />
                            <param name="Y" type="float" />
                            <param name="Z" type="float" />
                        </accessor>
                    </technique_common>
                </source>
                <vertices id="ID62">
                    <input semantic="POSITION" source="#ID60" />
                    <input semantic="NORMAL" source="#ID61" />
                </vertices>
                <triangles count="48" material="Material2">
                    <input offset="0" semantic="VERTEX" source="#ID62" />
                    <p>0 1 2 1 0 3 4 2 5 2 4 0 3 6 1 6 3 7 5 8 4 8 5 9 7 10 6 10 7 11 9 12 8 12 9 13 11 14 10 14 11 15 13 16 12 16 13 17 15 18 14 18 15 19 20 21 22 21 20 23 19 24 18 24 19 25 20 26 23 26 20 27 25 28 24 28 25 29 27 30 26 30 27 31 29 32 28 32 29 33 34 31 35 31 34 30 33 36 32 36 33 37 38 35 39 35 38 34 37 40 36 40 37 41 42 39 43 39 42 38 41 44 40 44 41 45 46 43 47 43 46 42 45 48 44 48 45 49 49 47 48 47 49 46</p>
                </triangles>
            </mesh>
        </geometry>
        <geometry id="ID65">
            <mesh>
                <source id="ID66">
                    <float_array id="ID69" count="72">-12.79852 -3.429352 31 -12.79852 3.429352 31 -13.25 4.056643e-15 31 -11.47484 -6.625 31 -11.47484 6.625 31 -9.369165 -9.369165 31 -9.369165 9.369165 31 -6.625 -11.47484 31 -6.625 11.47484 31 -3.429352 -12.79852 31 -3.429352 12.79852 31 -4.867971e-15 -13.25 31 3.245314e-15 13.25 31 3.429352 -12.79852 31 3.429352 12.79852 31 6.625 -11.47484 31 6.625 11.47484 31 9.369165 -9.369165 31 9.369165 9.369165 31 11.47484 -6.625 31 11.47484 6.625 31 12.79852 -3.429352 31 12.79852 3.429352 31 13.25 -2.433986e-15 31</float_array>
                    <technique_common>
                        <accessor count="24" source="#ID69" stride="3">
                            <param name="X" type="float" />
                            <param name="Y" type="float" />
                            <param name="Z" type="float" />
                        </accessor>
                    </technique_common>
                </source>
                <source id="ID67">
                    <float_array id="ID70" count="72">-0 -0 1 -0 -0 1 -0 -0 1 -0 -0 1 -0 -0 1 -0 -0 1 -0 -0 1 -0 -0 1 -0 -0 1 -0 -0 1 -0 -0 1 -0 -0 1 -0 -0 1 -0 -0 1 -0 -0 1 -0 -0 1 -0 -0 1 -0 -0 1 -0 -0 1 -0 -0 1 -0 -0 1 -0 -0 1 -0 -0 1 -0 -0 1</float_array>
                    <technique_common>
                        <accessor count="24" source="#ID70" stride="3">
                            <param name="X" type="float" />
                            <param name="Y" type="float" />
                            <param name="Z" type="float" />
                        </accessor>
                    </technique_common>
                </source>
                <vertices id="ID68">
                    <input semantic="POSITION" source="#ID66" />
                    <input semantic="NORMAL" source="#ID67" />
                </vertices>
                <triangles count="22" material="Material2">
                    <input offset="0" semantic="VERTEX" source="#ID68" />
                    <p>0 1 2 1 0 3 1 3 4 4 3 5 4 5 6 6 5 7 6 7 8 8 7 9 8 9 10 10 9 11 10 11 12 12 11 13 12 13 14 14 13 15 14 15 16 16 15 17 16 17 18 18 17 19 18 19 20 20 19 21 20 21 22 22 21 23</p>
                </triangles>
            </mesh>
        </geometry>
        <geometry id="ID71">
            <mesh>
                <source id="ID72">
                    <float_array id="ID75" count="432">-13.20689 7.625 0 -13.25 8.113285e-16 0 -14.73037 3.94699 0 -12.79852 3.429352 0 -10.78338 10.78338 0 -11.47484 6.625 0 -9.369165 9.369165 0 -7.625 13.20689 0 -6.625 11.47484 0 -3.94699 14.73037 0 -3.429352 12.79852 0 3.735173e-15 15.25 0 0 13.25 0 3.429352 12.79852 0 3.94699 14.73037 0 6.625 11.47484 0 7.625 13.20689 0 9.369165 9.369165 0 10.78338 10.78338 0 11.47484 6.625 0 13.20689 7.625 0 12.79852 3.429352 0 13.25 -2.433986e-15 0 14.73037 3.94699 0 14.73037 -3.94699 0 15.25 -2.80138e-15 0 -14.73037 -3.94699 0 -15.25 4.668966e-15 0 -13.20689 -7.625 0 -12.79852 -3.429352 0 -10.78338 -10.78338 0 -11.47484 -6.625 0 -9.369165 -9.369165 0 -7.625 -13.20689 0 -6.625 -11.47484 0 -3.94699 -14.73037 0 -3.429352 -12.79852 0 -5.602759e-15 -15.25 0 -1.622657e-15 -13.25 0 3.94699 -14.73037 0 3.429352 -12.79852 0 6.625 -11.47484 0 7.625 -13.20689 0 9.369165 -9.369165 0 10.78338 -10.78338 0 11.47484 -6.625 0 13.20689 -7.625 0 12.79852 -3.429352 0 -3.94699 14.73037 1 3.735173e-15 15.25 0 -3.94699 14.73037 0 3.735173e-15 15.25 1 3.94699 14.73037 0 3.94699 14.73037 1 7.625 13.20689 0 7.625 13.20689 1 10.78338 10.78338 0 10.78338 10.78338 1 13.20689 7.625 1 13.20689 7.625 0 14.73037 3.94699 1 14.73037 3.94699 0 15.25 -2.80138e-15 1 15.25 -2.80138e-15 0 14.73037 -3.94699 1 14.73037 -3.94699 0 13.20689 -7.625 1 13.20689 -7.625 0 10.78338 -10.78338 1 10.78338 -10.78338 0 7.625 -13.20689 0 7.625 -13.20689 1 3.94699 -14.73037 0 3.94699 -14.73037 1 -5.602759e-15 -15.25 0 -5.602759e-15 -15.25 1 -3.94699 -14.73037 0 -3.94699 -14.73037 1 -7.625 -13.20689 0 -7.625 -13.20689 1 -10.78338 -10.78338 0 -10.78338 -10.78338 1 -13.20689 -7.625 1 -13.20689 -7.625 0 -14.73037 -3.94699 1 -14.73037 -3.94699 0 -15.25 4.668966e-15 1 -15.25 4.668966e-15 0 -14.73037 3.94699 1 -14.73037 3.94699 0 -13.20689 7.625 1 -13.20689 7.625 0 -10.78338 10.78338 1 -10.78338 10.78338 0 -7.625 13.20689 0 -7.625 13.20689 1 -14.73037 -3.94699 1 -14.73037 3.94699 1 -15.25 4.668966e-15 1 -13.20689 -7.625 1 -13.25 8.113285e-16 1 -12.79852 -3.429352 1 -10.78338 -10.78338 1 -11.47484 -6.625 1 -9.369165 -9.369165 1 -7.625 -13.20689 1 -6.625 -11.47484 1 -3.94699 -14.73037 1 -3.429352 -12.79852 1 -5.602759e-15 -15.25 1 -1.622657e-15 -13.25 1 3.94699 -14.73037 1 3.429352 -12.79852 1 6.625 -11.47484 1 7.625 -13.20689 1 9.369165 -9.369165 1 10.78338 -10.78338 1 11.47484 -6.625 1 13.20689 -7.625 1 12.79852 -3.429352 1 13.25 -2.433986e-15 1 14.73037 -3.94699 1 -13.20689 7.625 1 -12.79852 3.429352 1 -10.78338 10.78338 1 -11.47484 6.625 1 -9.369165 9.369165 1 -7.625 13.20689 1 -6.625 11.47484 1 -3.94699 14.73037 1 -3.429352 12.79852 1 3.735173e-15 15.25 1 0 13.25 1 3.429352 12.79852 1 3.94699 14.73037 1 6.625 11.47484 1 7.625 13.20689 1 9.369165 9.369165 1 10.78338 10.78338 1 11.47484 6.625 1 13.20689 7.625 1 12.79852 3.429352 1 14.73037 3.94699 1 15.25 -2.80138e-15 1</float_array>
                    <technique_common>
                        <accessor count="144" source="#ID75" stride="3">
                            <param name="X" type="float" />
                            <param name="Y" type="float" />
                            <param name="Z" type="float" />
                        </accessor>
                    </technique_common>
                </source>
                <source id="ID73">
                    <float_array id="ID76" count="432">0 0 -1 0 0 -1 0 0 -1 0 0 -1 0 0 -1 0 0 -1 0 0 -1 0 0 -1 0 0 -1 0 0 -1 0 0 -1 0 0 -1 0 0 -1 0 0 -1 0 0 -1 0 0 -1 0 0 -1 0 0 -1 0 0 -1 0 0 -1 0 0 -1 0 0 -1 0 0 -1 0 0 -1 0 0 -1 0 0 -1 0 0 -1 0 0 -1 0 0 -1 0 0 -1 0 0 -1 0 0 -1 0 0 -1 0 0 -1 0 0 -1 0 0 -1 0 0 -1 0 0 -1 0 0 -1 0 0 -1 0 0 -1 0 0 -1 0 0 -1 0 0 -1 0 0 -1 0 0 -1 0 0 -1 0 0 -1 -0.258819 0.9659258 0 1.693111e-16 1 0 -0.258819 0.9659258 0 1.693111e-16 1 0 0.258819 0.9659258 0 0.258819 0.9659258 0 0.5 0.8660254 0 0.5 0.8660254 0 0.7071068 0.7071068 0 0.7071068 0.7071068 0 0.8660254 0.5 0 0.8660254 0.5 0 0.9659258 0.258819 0 0.9659258 0.258819 0 1 -2.227777e-16 0 1 -2.227777e-16 0 0.9659258 -0.258819 0 0.9659258 -0.258819 0 0.8660254 -0.5 0 0.8660254 -0.5 0 0.7071068 -0.7071068 0 0.7071068 -0.7071068 0 0.5 -0.8660254 0 0.5 -0.8660254 0 0.258819 -0.9659258 0 0.258819 -0.9659258 0 -4.633777e-16 -1 0 -4.633777e-16 -1 0 -0.258819 -0.9659258 0 -0.258819 -0.9659258 0 -0.5 -0.8660254 0 -0.5 -0.8660254 0 -0.7071068 -0.7071068 0 -0.7071068 -0.7071068 0 -0.8660254 -0.5 0 -0.8660254 -0.5 0 -0.9659258 -0.258819 0 -0.9659258 -0.258819 0 -1 3.475333e-16 0 -1 3.475333e-16 0 -0.9659258 0.258819 0 -0.9659258 0.258819 0 -0.8660254 0.5 0 -0.8660254 0.5 0 -0.7071068 0.7071068 0 -0.7071068 0.7071068 0 -0.5 0.8660254 0 -0.5 0.8660254 0 -0 -0 1 -0 -0 1 -0 -0 1 -0 -0 1 -0 -0 1 -0 -0 1 -0 -0 1 -0 -0 1 -0 -0 1 -0 -0 1 -0 -0 1 -0 -0 1 -0 -0 1 -0 -0 1 -0 -0 1 -0 -0 1 -0 -0 1 -0 -0 1 -0 -0 1 -0 -0 1 -0 -0 1 -0 -0 1 -0 -0 1 -0 -0 1 -0 -0 1 -0 -0 1 -0 -0 1 -0 -0 1 -0 -0 1 -0 -0 1 -0 -0 1 -0 -0 1 -0 -0 1 -0 -0 1 -0 -0 1 -0 -0 1 -0 -0 1 -0 -0 1 -0 -0 1 -0 -0 1 -0 -0 1 -0 -0 1 -0 -0 1 -0 -0 1 -0 -0 1 -0 -0 1 -0 -0 1 -0 -0 1</float_array>
                    <technique_common>
                        <accessor count="144" source="#ID76" stride="3">
                            <param name="X" type="float" />
                            <param name="Y" type="float" />
                            <param name="Z" type="float" />
                        </accessor>
                    </technique_common>
                </source>
                <vertices id="ID74">
                    <input semantic="POSITION" source="#ID72" />
                    <input semantic="NORMAL" source="#ID73" />
                </vertices>
                <triangles count="144" material="Material2">
                    <input offset="0" semantic="VERTEX" source="#ID74" />
                    <p>0 1 2 1 0 3 3 0 4 3 4 5 5 4 6 6 4 7 6 7 8 8 7 9 8 9 10 10 9 11 10 11 12 12 11 13 13 11 14 13 14 15 15 14 16 15 16 17 17 16 18 17 18 19 19 18 20 19 20 21 21 20 22 22 20 23 22 23 24 24 23 25 2 26 27 26 2 28 28 2 1 28 1 29 28 29 30 30 29 31 30 31 32 30 32 33 33 32 34 33 34 35 35 34 36 35 36 37 37 36 38 37 38 39 39 38 40 39 40 41 39 41 42 42 41 43 42 43 44 44 43 45 44 45 46 46 45 47 46 47 22 46 22 24 48 49 50 49 48 51 51 52 49 52 51 53 53 54 52 54 53 55 55 56 54 56 55 57 56 58 59 58 56 57 59 60 61 60 59 58 61 62 63 62 61 60 63 64 65 64 63 62 65 66 67 66 65 64 67 68 69 68 67 66 68 70 69 70 68 71 71 72 70 72 71 73 73 74 72 74 73 75 75 76 74 76 75 77 77 78 76 78 77 79 79 80 78 80 79 81 82 80 81 80 82 83 84 83 82 83 84 85 86 85 84 85 86 87 88 87 86 87 88 89 90 89 88 89 90 91 92 91 90 91 92 93 92 94 93 94 92 95 95 50 94 50 95 48 96 97 98 97 96 99 97 99 100 100 99 101 101 99 102 101 102 103 103 102 104 104 102 105 104 105 106 106 105 107 106 107 108 108 107 109 108 109 110 110 109 111 110 111 112 112 111 113 113 111 114 113 114 115 115 114 116 115 116 117 117 116 118 117 118 119 119 118 120 120 118 121 100 122 97 122 100 123 122 123 124 124 123 125 124 125 126 124 126 127 127 126 128 127 128 129 129 128 130 129 130 131 131 130 132 131 132 133 131 133 134 134 133 135 134 135 136 136 135 137 136 137 138 138 137 139 138 139 140 140 139 141 140 141 120 140 120 142 142 120 121 142 121 143</p>
                </triangles>
            </mesh>
        </geometry>
        <geometry id="ID77">
            <mesh>
                <source id="ID78">
                    <float_array id="ID81" count="150">-3.429352 -12.79852 1 -6.625 -11.47484 0 -3.429352 -12.79852 0 -6.625 -11.47484 1 -1.622657e-15 -13.25 1 -1.622657e-15 -13.25 0 -9.369165 -9.369165 0 -9.369165 -9.369165 1 3.429352 -12.79852 1 3.429352 -12.79852 0 -11.47484 -6.625 1 -11.47484 -6.625 0 6.625 -11.47484 1 6.625 -11.47484 0 -12.79852 -3.429352 1 -12.79852 -3.429352 0 9.369165 -9.369165 1 9.369165 -9.369165 0 -13.25 8.113285e-16 1 -13.25 8.113285e-16 0 11.47484 -6.625 0 11.47484 -6.625 1 -12.79852 3.429352 1 -12.79852 3.429352 0 12.79852 -3.429352 0 12.79852 -3.429352 1 -11.47484 6.625 1 -11.47484 6.625 0 13.25 -2.433986e-15 0 13.25 -2.433986e-15 1 -9.369165 9.369165 1 -9.369165 9.369165 0 12.79852 3.429352 0 13.25 -2.433986e-15 1 13.25 -2.433986e-15 0 12.79852 3.429352 1 -6.625 11.47484 0 -6.625 11.47484 1 11.47484 6.625 0 11.47484 6.625 1 -3.429352 12.79852 0 -3.429352 12.79852 1 9.369165 9.369165 0 9.369165 9.369165 1 0 13.25 0 0 13.25 1 6.625 11.47484 1 6.625 11.47484 0 3.429352 12.79852 0 3.429352 12.79852 1</float_array>
                    <technique_common>
                        <accessor count="50" source="#ID81" stride="3">
                            <param name="X" type="float" />
                            <param name="Y" type="float" />
                            <param name="Z" type="float" />
                        </accessor>
                    </technique_common>
                </source>
                <source id="ID79">
                    <float_array id="ID82" count="150">-0.258819 -0.9659258 0 -0.5 -0.8660254 0 -0.258819 -0.9659258 0 -0.5 -0.8660254 0 -1.425778e-16 -1 0 -1.425778e-16 -1 0 -0.7071068 -0.7071068 0 -0.7071068 -0.7071068 0 0.258819 -0.9659258 0 0.258819 -0.9659258 0 -0.8660254 -0.5 0 -0.8660254 -0.5 0 0.5 -0.8660254 0 0.5 -0.8660254 0 -0.9659258 -0.258819 0 -0.9659258 -0.258819 0 0.7071068 -0.7071068 0 0.7071068 -0.7071068 0 -1 -4.455555e-17 0 -1 -4.455555e-17 0 0.8660254 -0.5 0 0.8660254 -0.5 0 -0.9659258 0.258819 0 -0.9659258 0.258819 0 0.9659258 -0.258819 0 0.9659258 -0.258819 0 -0.8660254 0.5 0 -0.8660254 0.5 0 0.9914449 -0.1305262 -0 0.9914449 -0.1305262 -0 -0.7071068 0.7071068 0 -0.7071068 0.7071068 0 0.9659258 0.258819 0 0.9914449 0.1305262 -0 0.9914449 0.1305262 -0 0.9659258 0.258819 0 -0.5 0.8660254 0 -0.5 0.8660254 0 0.8660254 0.5 0 0.8660254 0.5 0 -0.258819 0.9659258 0 -0.258819 0.9659258 0 0.7071068 0.7071068 0 0.7071068 0.7071068 0 4.455555e-17 1 0 4.455555e-17 1 0 0.5 0.8660254 0 0.5 0.8660254 0 0.258819 0.9659258 0 0.258819 0.9659258 0</float_array>
                    <technique_common>
                        <accessor count="50" source="#ID82" stride="3">
                            <param name="X" type="float" />
                            <param name="Y" type="float" />
                            <param name="Z" type="float" />
                        </accessor>
                    </technique_common>
                </source>
                <vertices id="ID80">
                    <input semantic="POSITION" source="#ID78" />
                    <input semantic="NORMAL" source="#ID79" />
                </vertices>
                <triangles count="48" material="Material2">
                    <input offset="0" semantic="VERTEX" source="#ID80" />
                    <p>0 1 2 1 0 3 4 2 5 2 4 0 3 6 1 6 3 7 8 5 9 5 8 4 10 6 7 6 10 11 12 9 13 9 12 8 14 11 10 11 14 15 16 13 17 13 16 12 18 15 14 15 18 19 20 16 17 16 20 21 22 19 18 19 22 23 24 21 20 21 24 25 26 23 22 23 26 27 28 25 24 25 28 29 30 27 26 27 30 31 32 33 34 33 32 35 30 36 31 36 30 37 38 35 32 35 38 39 37 40 36 40 37 41 42 39 38 39 42 43 41 44 40 44 41 45 46 42 47 42 46 43 45 48 44 48 45 49 49 47 48 47 49 46</p>
                </triangles>
            </mesh>
        </geometry>
        <geometry id="ID83">
            <mesh>
                <source id="ID86">
                    <float_array id="ID88" count="21">0 0 7.75 0 0 0 0 13.25 7.75 0 0 15.5 0 0 23.25 0 0 31 0 0 38.75</float_array>
                    <technique_common>
                        <accessor count="7" source="#ID88" stride="3">
                            <param name="X" type="float" />
                            <param name="Y" type="float" />
                            <param name="Z" type="float" />
                        </accessor>
                    </technique_common>
                </source>
                <vertices id="ID87">
                    <input semantic="POSITION" source="#ID86" />
                </vertices>
                <lines count="6" material="Material2">
                    <input offset="0" semantic="VERTEX" source="#ID87" />
                    <p>1 0 0 2 0 3 3 4 4 5 5 6</p>
                </lines>
            </mesh>
        </geometry>
    </library_geometries>
    <library_materials>
        <material id="ID4" name="Color_008">
            <instance_effect url="#ID5" />
        </material>
        <material id="ID12" name="Color_B02">
            <instance_effect url="#ID13" />
        </material>
        <material id="ID27" name="material">
            <instance_effect url="#ID26" />
        </material>
        <material id="ID34" name="Color_000">
            <instance_effect url="#ID35" />
        </material>
        <material id="ID84" name="edge_color000255">
            <instance_effect url="#ID85" />
        </material>
    </library_materials>
    <library_effects>
        <effect id="ID5">
            <profile_COMMON>
                <technique sid="COMMON">
                    <lambert>
                        <diffuse>
                            <color>0.1176471 0.1176471 0.1176471 1</color>
                        </diffuse>
                    </lambert>
                </technique>
            </profile_COMMON>
        </effect>
        <effect id="ID13">
            <profile_COMMON>
                <technique sid="COMMON">
                    <lambert>
                        <diffuse>
                            <color>1 0.3960784 0.1960784 1</color>
                        </diffuse>
                    </lambert>
                </technique>
            </profile_COMMON>
        </effect>
        <effect id="ID26">
            <profile_COMMON>
                <technique sid="COMMON">
                    <lambert>
                        <diffuse>
                            <color>1 1 1 1</color>
                        </diffuse>
                    </lambert>
                </technique>
            </profile_COMMON>
        </effect>
        <effect id="ID35">
            <profile_COMMON>
                <technique sid="COMMON">
                    <lambert>
                        <diffuse>
                            <color>1 1 1 1</color>
                        </diffuse>
                    </lambert>
                </technique>
            </profile_COMMON>
        </effect>
        <effect id="ID85">
            <profile_COMMON>
                <technique sid="COMMON">
                    <constant>
                        <transparent opaque="A_ONE">
                            <color>0 0 0 1</color>
                        </transparent>
                        <transparency>
                            <float>1</float>
                        </transparency>
                    </constant>
                </technique>
            </profile_COMMON>
        </effect>
    </library_effects>
    <scene>
        <instance_visual_scene url="#ID2" />
    </scene>
</COLLADA>
